HIERARCHY
ROOT root     
{
	OFFSET 0.0000 0.0000 0.0000
	CHANNELS 6 Xposition Yposition Zposition Zrotation Yrotation Xrotation
	JOINT pelvis   
	{
		OFFSET 0.0000 0.0000 0.0000
		CHANNELS 3 Zrotation Yrotation Xrotation
		JOINT thorax   
		{
			OFFSET 0.0000 23.0750 -5.0000
			CHANNELS 3 Zrotation Yrotation Xrotation
			JOINT rclavicle
			{
				OFFSET 0.0000 28.0009 0.0000
				CHANNELS 3 Zrotation Yrotation Xrotation
				JOINT rhumerus 
				{
					OFFSET -18.5725 5.5939 0.0000
					CHANNELS 3 Zrotation Yrotation Xrotation
					JOINT rradius  
					{
						OFFSET -24.8459 0.0000 0.0000
						CHANNELS 3 Zrotation Yrotation Xrotation
						JOINT rhand    
						{
							OFFSET -24.5477 0.0000 0.0000
							CHANNELS 3 Zrotation Yrotation Xrotation
							End Site
							{
								OFFSET -8.1826 0.0000 0.0000
							}
						}
					}
				}
			}
			JOINT lclavicle
			{
				OFFSET 0.0000 28.0009 0.0000
				CHANNELS 3 Zrotation Yrotation Xrotation
				JOINT lhumerus 
				{
					OFFSET 18.5725 5.5939 0.0000
					CHANNELS 3 Zrotation Yrotation Xrotation
					JOINT lradius  
					{
						OFFSET 24.8459 0.0000 0.0000
						CHANNELS 3 Zrotation Yrotation Xrotation
						JOINT lhand    
						{
							OFFSET 24.5477 0.0000 0.0000
							CHANNELS 3 Zrotation Yrotation Xrotation
							End Site
							{
								OFFSET 8.1826 0.0000 0.0000
							}
						}
					}
				}
			}
			JOINT head     
			{
				OFFSET 0.0000 35.2030 0.0000
				CHANNELS 3 Zrotation Yrotation Xrotation
				End Site
				{
					OFFSET 0.0000 11.7343 0.0000
				}
			}
		}
		JOINT rfemur   
		{
			OFFSET -8.2817 0.0000 0.0000
			CHANNELS 3 Zrotation Yrotation Xrotation
			JOINT rtibia   
			{
				OFFSET 0.0000 -43.3627 0.0000
				CHANNELS 3 Zrotation Yrotation Xrotation
				JOINT rfoot    
				{
					OFFSET 0.0000 -38.2947 0.0000
					CHANNELS 3 Zrotation Yrotation Xrotation
					JOINT rtoes    
					{
						OFFSET 0.0000 0.0000 16.6054
						CHANNELS 3 Zrotation Yrotation Xrotation
						End Site
						{
							OFFSET 0.0000 0.0000 5.5351
						}
					}
				}
			}
		}
		JOINT lfemur   
		{
			OFFSET 8.2817 0.0000 0.0000
			CHANNELS 3 Zrotation Yrotation Xrotation
			JOINT ltibia   
			{
				OFFSET 0.0000 -43.3627 0.0000
				CHANNELS 3 Zrotation Yrotation Xrotation
				JOINT lfoot    
				{
					OFFSET 0.0000 -38.2947 0.0000
					CHANNELS 3 Zrotation Yrotation Xrotation
					JOINT ltoes    
					{
						OFFSET 0.0000 0.0000 16.6054
						CHANNELS 3 Zrotation Yrotation Xrotation
						End Site
						{
							OFFSET 0.0000 0.0000 5.5351
						}
					}
				}
			}
		}
	}
}
MOTION
Frames: 7
Frame Time: .0333333
59.891 85.973 11.398 -162.014 -83.5788 -178.635 0 -0 0 0.901401 -6.36993 -10.2781 25.6939 -8.6855 2.80666e-05 36.9715 11.3545 14.2422 -180 89.3374 -180 13.3615 -0.758499 -0.0888023 -25.5847 11.528 -3.41669e-05 -50.8917 2.95051 3.65787 0 -75.3131 0 -0.940892 6.01691 -0.0494995 7.84719 0.230597 -1.58883 -0.25652 -10.6294 -27.6502 -0 -0 61.7232 -6.96856e-06 -5.28686 11.0707 -1.01802 2.88175e-06 -57.0192 -6.45976 3.86969 -12.6373 -0 -0 21.3771 1.55229e-06 11.1233 -3.54422 -0.696407 -7.86178e-06 -40.3745 
58.546 86.335 11.298 -159.472 -84.0266 179.003 0 -0 0 1.75863 -7.38101 -10.5621 25.7643 -8.87761 1.97362e-05 36.6956 11.1417 13.6767 -180 89.321 -180 12.9368 -0.601397 -0.0682012 -25.2645 11.3065 9.54266e-06 -50.6167 2.80792 5.50903 7.69824e-07 -76.0256 -9.84868e-07 -1.05321 5.99079 -0.0551004 7.6716 0.5896 -1.54006 0.1659 -10.3955 -28.9637 -0 -0 60.463 -4.50158e-06 -5.11086 10.2736 -0.913906 -2.93664e-06 -56.3112 -6.07263 4.25342 -11.5697 -0 -0 20.3565 3.23693e-06 10.1976 -1.62257 -0.291798 5.68901e-07 -43.8773 
57.212 86.686 11.203 -156.821 -84.5355 176.593 0 -0 0 2.59214 -8.39117 -10.9188 25.8387 -9.0806 4.0626e-05 36.4855 10.8944 13.0592 -180 89.2455 -180 12.3519 -0.361698 -0.0391012 -24.942 11.1233 2.16741e-05 -50.1922 2.55871 7.43876 0 -76.7854 0 -0.937408 5.87253 -0.0481011 7.44549 0.919399 -1.54038 0.560795 -10.1763 -30.2801 -0 -0 59.006 -1.20004e-06 -4.91229 9.54503 -0.8165 -6.02098e-06 -55.4298 -5.70651 4.55271 -10.6323 -0 -0 19.4115 4.65101e-08 9.24555 0.334001 0.0544003 -9.39651e-08 -47.4431 
55.887 87.024 11.111 -153.951 -85.055 174.008 0 -0 0 3.41526 -9.36532 -11.3368 25.9114 -9.29146 -9.01594e-05 36.3412 10.6102 12.3885 -180 89.3017 -180 11.6339 -0.0478 -0.00490024 -24.6263 10.9631 -3.02553e-05 -49.6412 2.21556 9.40358 8.79931e-07 -77.59 -1.09463e-06 -0.646199 5.66762 -0.0320002 7.15918 1.2098 -1.59846 0.932081 -9.96358 -31.5842 -0 -0 57.3557 -3.20179e-06 -4.71522 8.88323 -0.729707 -9.66351e-07 -54.5396 -5.35597 4.74346 -9.80043 -0 -0 18.5242 -5.72758e-06 8.30595 2.3117 0.337398 3.40555e-06 -50.8858 
54.566 87.345 11.022 -150.632 -85.58 171.009 0 -0 0 4.24275 -10.2724 -11.7924 25.9743 -9.50601 -5.34331e-05 36.261 10.2881 11.6601 -180 89.2948 -180 10.8136 0.329203 0.0311997 -24.3243 10.8211 -1.94249e-05 -48.9869 1.77776 11.3663 4.81761e-07 -78.4278 -1.06787e-06 -0.235204 5.38546 -0.0111002 6.80736 1.45459 -1.7286 1.29186 -9.75526 -32.849 -0 -0 55.5114 -7.87812e-06 -4.53827 8.28334 -0.655198 -6.01709e-06 -53.8133 -5.0104 4.82016 -9.04537 -0 -0 17.6864 3.37838e-06 7.40899 4.29913 0.558491 -3.37724e-06 -54.0501 
53.243 87.648 10.931 -146.657 -86.0706 167.362 0 -0 0 5.08109 -11.0888 -12.2551 26.0245 -9.71849 1.99165e-05 36.2425 9.93196 10.87 -180 89.2259 -180 9.92634 0.758496 0.0658991 -24.0378 10.6863 1.49802e-05 -48.2521 1.2548 13.2827 1.03716e-06 -79.2976 -1.25154e-06 0.2414 5.04135 0.0105999 6.38997 1.65134 -1.94682 1.65576 -9.55732 -34.0442 -0 -0 53.4661 -3.36679e-06 -4.39183 7.74216 -0.592803 5.92266e-06 -53.4509 -4.66184 4.79174 -8.33562 -0 -0 16.8969 2.55676e-06 6.57776 6.28683 0.723504 -4.84e-06 -56.8193 
51.913 87.928 10.838 -141.843 -86.5114 162.862 0 -0 0 5.92848 -11.7998 -12.6902 26.0614 -9.92441 -2.12805e-05 36.2816 9.54775 10.016 -180 89.2187 -180 9.00322 1.22774 0.0967019 -23.7703 10.5506 -4.71955e-05 -47.458 0.657726 15.1125 1.61616e-06 -80.2043 -1.91912e-06 0.735107 4.65542 0.0299006 5.91251 1.80128 -2.26798 2.04014 -9.38343 -35.1327 -0 -0 51.2142 -3.77718e-06 -4.27624 7.25328 -0.540905 5.34444e-06 -53.6166 -4.30666 4.68215 -7.64052 -0 -0 16.1606 5.96326e-06 5.82709 8.26377 0.840396 2.13427e-06 -59.1238 
